<svg xmlns="http://www.w3.org/2000/svg" width="23.572" height="22.655" viewBox="0 0 23.572 22.655">
  <g id="_-Product-Icons" data-name="ðŸ”-Product-Icons" transform="translate(-2 -2.65)">
    <g id="ic_fluent_send_28_filled">
      <path id="_-Color" data-name="ðŸŽ¨-Color" d="M3.79,2.772,24.861,12.85a1.25,1.25,0,0,1,0,2.255L3.79,25.183a1.25,1.25,0,0,1-1.745-1.457L4.152,16a.5.5,0,0,1,.415-.364l10.211-1.387a.25.25,0,0,0,.195-.149l.018-.063a.25.25,0,0,0-.156-.268l-.056-.015-10.2-1.387A.5.5,0,0,1,4.164,12L2.044,4.229A1.25,1.25,0,0,1,3.79,2.772Z" fill="#6fbaf8"/>
    </g>
  </g>
</svg>
