<svg xmlns="http://www.w3.org/2000/svg" viewBox="0 0 24 24"><defs><style>.cls-1{fill:none;}.cls-2{fill:#fff;}</style></defs><g id="레이어_2" data-name="레이어 2"><g id="레이어_1-2" data-name="레이어 1"><path class="cls-1" d="M0,0H24V24H0Z"/><path class="cls-2" d="M5.82,4.91a10.84,10.84,0,0,1,13.07.54,8.36,8.36,0,0,1,1.16,11.89A10.71,10.71,0,0,1,7.82,20.15l-.24-.1L3.21,21H2.87l-.11,0-.11,0-.1-.05-.07,0-.11-.08-.08-.07-.08-.08,0-.08-.06-.11-.05-.11,0-.11v-.34l0-.11,0-.08L3.2,16.23l0,0A8.4,8.4,0,0,1,5.59,5.08l.23-.17Z"/></g></g></svg>